HIERARCHY
ROOT Hips
{
	OFFSET 0.000000 0.000000 0.000000 
	CHANNELS 6 Xposition Yposition Zposition Zrotation Yrotation Xrotation
	JOINT LeftUpLeg
	{
		OFFSET 1.363060 -1.794630 0.839290 
		CHANNELS 3 Zrotation Yrotation Xrotation
		JOINT LeftLeg
		{
			OFFSET 2.448110 -6.726130 0.000000 
			CHANNELS 3 Zrotation Yrotation Xrotation
			JOINT LeftFoot
			{
				OFFSET 2.562200 -7.039590 0.000000 
				CHANNELS 3 Zrotation Yrotation Xrotation
				JOINT LeftToeBase
				{
					OFFSET 0.157640 -0.433110 2.322550 
					CHANNELS 3 Zrotation Yrotation Xrotation
					End Site
					{
						OFFSET 0.000000 0.000000 0.000000 
					}
				}
			}
		}
	}
	JOINT RightUpLeg
	{
		OFFSET -1.305520 -1.794630 0.839290 
		CHANNELS 3 Zrotation Yrotation Xrotation
		JOINT RightLeg
		{
			OFFSET -2.542530 -6.985550 0.000000 
			CHANNELS 3 Zrotation Yrotation Xrotation
			JOINT RightFoot
			{
				OFFSET -2.568260 -7.056230 0.000000 
				CHANNELS 3 Zrotation Yrotation Xrotation
				JOINT RightToeBase
				{
					OFFSET -0.164730 -0.452590 2.363150 
					CHANNELS 3 Zrotation Yrotation Xrotation
					End Site
					{
						OFFSET 0.000000 0.000000 0.000000 
					}
				}
			}
		}
	}
	JOINT Spine
	{
		OFFSET 0.028270 2.035590 -0.193380 
		CHANNELS 3 Zrotation Yrotation Xrotation
		JOINT Spine1
		{
			OFFSET 0.056720 2.048850 -0.042750 
			CHANNELS 3 Zrotation Yrotation Xrotation
			JOINT Neck1
			{
				OFFSET -0.054170 1.746240 0.172020 
				CHANNELS 3 Zrotation Yrotation Xrotation
				JOINT Head
				{
					OFFSET 0.104070 1.761360 -0.123970 
					CHANNELS 3 Zrotation Yrotation Xrotation
					End Site
					{
						OFFSET 0.000000 0.000000 0.000000 
					}
				}
			}
			JOINT LeftArm
			{
				OFFSET 3.362410 1.200890 -0.311210 
				CHANNELS 3 Zrotation Yrotation Xrotation
				JOINT LeftForeArm
				{
					OFFSET 4.983000 -0.000000 -0.000000 
					CHANNELS 3 Zrotation Yrotation Xrotation
					JOINT LeftHand
					{
						OFFSET 3.483560 -0.000000 -0.000000 
						CHANNELS 3 Zrotation Yrotation Xrotation
						JOINT LeftHandIndex1
						{
							OFFSET 0.715260 -0.000000 -0.000000 
							CHANNELS 3 Zrotation Yrotation Xrotation
							End Site
							{
								OFFSET 0.000000 0.000000 0.000000 
							}
						}
					}
				}
			}
			JOINT RightArm
			{
				OFFSET -3.136600 1.374050 -0.404650 
				CHANNELS 3 Zrotation Yrotation Xrotation
				JOINT RightForeArm
				{
					OFFSET -5.241900 -0.000000 -0.000000 
					CHANNELS 3 Zrotation Yrotation Xrotation
					JOINT RightHand
					{
						OFFSET -3.444170 -0.000000 -0.000000 
						CHANNELS 3 Zrotation Yrotation Xrotation
						JOINT RightHandIndex1
						{
							OFFSET -0.622530 -0.000000 -0.000000 
							CHANNELS 3 Zrotation Yrotation Xrotation
							End Site
							{
								OFFSET 0.000000 0.000000 0.000000 
							}
						}
					}
				}
			}
		}
	}
}
MOTION
Frames: 10
Frame Time: 0.041667
10.410198 14.596801 10.913946 179.614571 -2.517427 155.306931 12.096984 11.111486 -32.195187 20.452089 23.087740 69.743776 6.042869 -1.057243 33.292663 0.558800 -4.788000 -13.304900 -12.332013 -5.008672 -31.309630 -20.341146 -23.257645 63.189595 -3.048115 -7.346319 41.190284 -1.251100 7.091300 -19.986100 -2.005532 8.190264 21.601334 -1.305517 -5.399400 -3.842082 4.152988 -4.250934 8.197444 1.126800 -2.003100 5.706200 -37.449931 -48.673415 33.951719 36.353520 -18.239019 -26.680612 -6.494371 -1.466358 26.279268 -7.125000 0.000000 0.000000 38.102203 54.625136 28.078426 -35.314454 16.942591 -28.337087 -2.922901 -6.170575 27.473737 7.125000 0.000000 0.000000 
10.407707 14.587254 10.922386 179.763580 -2.555509 155.245757 12.207163 11.204603 -32.219785 20.674433 23.133897 69.773833 5.422511 0.281503 32.907946 1.006300 -6.383200 -17.900500 -12.214739 -4.975456 -31.315967 -20.348175 -23.219942 63.227797 -2.975616 -7.511301 41.172799 -1.162900 6.845900 -19.259800 -2.258723 8.040290 21.656638 -1.340196 -5.484315 -3.834104 4.162145 -4.282376 8.212285 1.137600 -2.017700 5.736800 -37.100975 -48.669980 34.120164 36.138483 -18.019642 -26.379935 -6.464682 -1.464987 25.976798 -7.125000 0.000000 0.000000 37.717305 54.501343 28.002583 -35.246793 16.841558 -28.216608 -2.846735 -6.201289 27.422243 7.125000 0.000000 0.000000 
10.404663 14.584072 10.932624 179.859637 -2.570436 155.058983 12.307529 11.214091 -32.070277 20.557171 23.198916 69.694885 5.911389 -0.750062 33.269954 0.923500 -6.122300 -17.139800 -12.162185 -4.927066 -31.199365 -20.347673 -23.190062 63.222211 -2.943547 -7.598539 41.174871 -1.141500 6.784600 -19.078900 -2.633347 8.013979 21.700884 -1.311899 -5.679014 -3.954097 4.191754 -4.413537 8.172336 1.201300 -2.080500 5.643600 -36.603658 -48.511796 34.352915 35.848018 -17.809148 -26.022179 -6.638392 -1.595996 25.496153 -7.125000 0.000000 0.000000 37.650223 54.386972 27.968922 -35.267031 16.893353 -28.234527 -2.706083 -6.209479 27.436209 7.125000 0.000000 0.000000 
10.405632 14.577570 10.941202 179.742996 -2.586054 154.864518 12.266792 11.204584 -31.978393 20.589667 23.196350 69.703400 5.758674 -0.403092 33.084777 0.891900 -6.019400 -16.840700 -12.331648 -4.728805 -31.028141 -20.375816 -23.232530 63.237265 -2.955931 -7.586678 41.211676 -1.145000 6.794800 -19.109000 -2.624658 8.192805 21.664330 -1.327197 -5.741102 -4.060555 4.218242 -4.559923 8.129357 1.271300 -2.149700 5.555700 -36.200701 -48.382458 34.534783 35.571059 -17.628016 -25.621098 -6.748841 -1.538962 25.247618 -7.125000 0.000000 0.000000 37.503589 54.340402 27.959880 -35.164494 16.824895 -28.124356 -2.675282 -6.314650 27.291754 7.125000 0.000000 0.000000 
10.411858 14.577846 10.943692 179.913226 -2.568837 154.894467 12.463900 11.184202 -31.944291 20.346911 23.258257 69.644756 6.753963 -2.588369 33.680377 0.429900 -4.207800 -11.662100 -12.141713 -4.666927 -31.084171 -20.457016 -23.197148 63.255605 -2.661541 -8.291196 41.140227 -1.226000 7.022500 -19.782100 -2.908683 8.151765 21.692387 -1.386748 -5.890283 -4.075238 4.250195 -4.571372 8.110916 1.308900 -2.150300 5.499600 -35.859333 -48.384713 34.655257 35.247157 -17.346778 -25.194820 -6.720841 -1.270375 25.010679 -7.125000 0.000000 0.000000 37.318281 54.213040 28.024928 -35.123727 16.845310 -28.067163 -2.761458 -6.291339 26.937560 7.125000 0.000000 0.000000 
10.417254 14.585041 10.943830 -179.812499 -2.554972 154.928507 12.725997 11.124625 -31.893337 20.365892 23.334730 69.627234 6.924905 -2.930054 33.487022 0.474800 -4.419000 -12.258600 -11.853874 -4.665205 -31.134460 -20.517169 -23.135221 63.235013 -2.347826 -9.049639 41.064079 -1.334500 7.314800 -20.651500 -3.254409 7.952465 21.761319 -1.463433 -6.023114 -4.049010 4.251136 -4.540460 8.117582 1.270400 -2.131300 5.510300 -35.617227 -48.555016 34.702113 35.099501 -17.063210 -24.990047 -6.651252 -1.109465 24.833705 -7.125000 0.000000 0.000000 37.131901 54.040077 27.946578 -35.197331 16.937097 -28.168395 -2.795298 -6.213626 26.694003 7.125000 0.000000 0.000000 
10.417530 14.583657 10.951855 -179.667005 -2.609607 154.807010 12.843487 11.038573 -31.778489 20.415769 23.375037 69.575861 6.812074 -2.682045 33.517155 0.595900 -4.942100 -13.743400 -11.769783 -4.624816 -31.061968 -20.526776 -23.125881 63.206109 -2.257141 -9.305984 41.079537 -1.366600 7.398800 -20.902200 -3.326640 7.615495 21.852275 -1.481975 -5.935213 -4.003874 4.228390 -4.595542 8.121863 1.210000 -2.156700 5.570000 -35.417904 -48.786116 34.765811 35.139755 -16.866288 -24.988484 -6.632979 -1.173581 24.767798 -7.125000 0.000000 0.000000 36.376687 53.835211 27.624675 -35.118376 16.735341 -28.058421 -2.746554 -6.284470 26.596925 7.125000 0.000000 0.000000 
10.414625 14.577985 10.963892 -179.653889 -2.640280 154.741215 12.872274 10.931575 -31.713544 20.389879 23.401735 69.524724 6.841548 -2.761954 33.676752 0.648100 -5.149900 -14.336700 -11.762440 -4.670905 -31.039474 -20.539056 -23.108722 63.155340 -2.222907 -9.426702 41.110899 -1.380700 7.435400 -21.011800 -3.506194 7.486400 21.896797 -1.360563 -5.960287 -4.021972 4.234316 -4.565482 8.121890 1.235900 -2.146600 5.631600 -35.217230 -48.908924 34.501002 35.147428 -16.702386 -25.045248 -6.659855 -1.203390 24.826058 -7.125000 0.000000 0.000000 35.785990 53.868505 27.541138 -35.056917 16.455951 -27.907488 -2.782132 -6.367003 26.576926 7.125000 0.000000 0.000000 
10.414902 14.577431 10.969288 -179.741278 -2.646594 154.722791 12.828078 10.866419 -31.693671 20.295660 23.399231 69.493368 7.048766 -3.229161 33.826289 0.489600 -4.486300 -12.449000 -11.838194 -4.680208 -31.019927 -20.553843 -23.108444 63.140713 -2.241441 -9.393481 41.129759 -1.376300 7.423800 -20.977300 -3.593756 7.647159 21.883119 -1.266871 -6.048905 -4.147358 4.247268 -4.491255 8.115476 1.272400 -2.115400 5.636200 -35.175943 -48.982250 34.169005 35.115434 -16.571729 -25.043482 -6.623130 -1.164152 24.876341 -7.125000 0.000000 0.000000 35.853750 53.928388 27.695539 -35.105065 16.457321 -27.940371 -2.773163 -6.377133 26.408283 7.125000 0.000000 0.000000 
10.419052 14.582274 10.972470 -179.759961 -2.661725 154.688947 12.798107 10.905894 -31.682007 20.241481 23.394320 69.435460 7.165793 -3.479601 33.904413 0.381400 -3.966400 -10.982100 -11.849392 -4.705221 -31.004802 -20.553880 -23.111487 63.152435 -2.262934 -9.335672 41.121772 -1.414700 7.522500 -21.272800 -3.562577 7.737331 21.867761 -1.301951 -6.064269 -4.158626 4.248798 -4.462568 8.108337 1.263800 -2.098800 5.619700 -34.969802 -49.036958 34.075300 34.980332 -16.381030 -24.838242 -6.569119 -1.178175 24.860134 -7.125000 0.000000 0.000000 35.663111 53.880852 27.777446 -34.976006 16.360980 -27.765019 -2.755882 -6.474159 26.069804 7.125000 0.000000 0.000000 
